<svg width="102" height="102" viewBox="0 0 102 102" fill="none" xmlns="http://www.w3.org/2000/svg">
<g clip-path="url(#clip0_169_50774)">
<rect x="14.1641" y="6.80859" width="7.36523" height="7.36523" fill="#FF453F"/>
<rect x="65.7207" y="6.80859" width="7.36523" height="7.36523" fill="#FF453F"/>
<rect x="21.5293" y="6.80859" width="7.36523" height="7.36523" fill="#FF453F"/>
<rect x="73.0859" y="6.80859" width="7.36523" height="7.36523" fill="#FF453F"/>
<rect x="28.8945" y="6.80859" width="7.36523" height="7.36523" fill="#FF453F"/>
<rect x="36.2598" y="14.1738" width="7.36523" height="7.36523" fill="#FF453F"/>
<rect x="58.3555" y="14.1738" width="7.36523" height="7.36523" fill="#FF453F"/>
<rect x="36.2598" y="21.5391" width="7.36523" height="7.36523" fill="#FF453F"/>
<rect x="58.3555" y="21.5391" width="7.36523" height="7.36523" fill="#FF453F"/>
<rect x="80.4512" y="6.80859" width="7.36523" height="7.36523" fill="#FF453F"/>
<rect x="6.79883" y="14.1738" width="7.36523" height="7.36523" fill="#FF453F"/>
<rect x="87.8164" y="14.1738" width="7.36523" height="7.36523" fill="#FF453F"/>
<rect x="80.4512" y="58.3652" width="7.36523" height="7.36523" fill="#FF453F"/>
<rect x="87.8164" y="65.7305" width="7.36523" height="7.36523" fill="#FF453F"/>
<rect x="14.1641" y="58.3652" width="7.36523" height="7.36523" fill="#FF453F"/>
<rect x="6.79883" y="65.7305" width="7.36523" height="7.36523" fill="#FF453F"/>
<rect x="6.79883" y="73.0957" width="7.36523" height="7.36523" fill="#FF453F"/>
<rect x="58.3555" y="87.8262" width="7.36523" height="7.36523" fill="#FF453F"/>
<rect x="87.8164" y="80.4609" width="7.36523" height="7.36523" fill="#FF453F"/>
<rect x="87.8164" y="87.8262" width="7.36523" height="7.36523" fill="#FF453F"/>
<rect x="65.7207" y="87.8262" width="7.36523" height="7.36523" fill="#FF453F"/>
<rect x="73.0859" y="80.4609" width="7.36523" height="7.36523" fill="#FF453F"/>
<rect x="73.0859" y="87.8262" width="7.36523" height="7.36523" fill="#FF453F"/>
<rect x="73.0859" y="73.0957" width="7.36523" height="7.36523" fill="#FF453F"/>
<rect x="21.5293" y="73.0957" width="7.36523" height="7.36523" fill="#FF453F"/>
<rect x="6.79883" y="80.4609" width="7.36523" height="7.36523" fill="#FF453F"/>
<rect x="6.79883" y="87.8262" width="7.36523" height="7.36523" fill="#FF453F"/>
<rect x="36.2598" y="87.8262" width="7.36523" height="7.36523" fill="#FF453F"/>
<rect x="28.8945" y="87.8262" width="7.36523" height="7.36523" fill="#FF453F"/>
<rect x="21.5293" y="80.4609" width="7.36523" height="7.36523" fill="#FF453F"/>
<rect x="21.5293" y="87.8262" width="7.36523" height="7.36523" fill="#FF453F"/>
<rect x="65.7207" y="87.8262" width="7.36523" height="7.36523" fill="#FF453F"/>
<rect x="87.8164" y="73.0957" width="7.36523" height="7.36523" fill="#FF453F"/>
<rect x="28.8945" y="58.3652" width="7.36523" height="7.36523" fill="#FF453F"/>
<rect x="36.2598" y="58.3652" width="7.36523" height="7.36523" fill="#FF453F"/>
<rect x="43.625" y="58.3652" width="7.36523" height="7.36523" fill="#FF453F"/>
<rect x="43.625" y="36.2695" width="7.36523" height="7.36523" fill="black"/>
<rect x="50.9902" y="58.3652" width="7.36523" height="7.36523" fill="#FF453F"/>
<rect x="50.9902" y="36.2695" width="7.36523" height="7.36523" fill="black"/>
<rect x="58.3555" y="58.3652" width="7.36523" height="7.36523" fill="#FF453F"/>
<rect x="65.7207" y="58.3652" width="7.36523" height="7.36523" fill="#FF453F"/>
<rect x="6.79883" y="21.5391" width="7.36523" height="7.36523" fill="#FF453F"/>
<rect x="87.8164" y="21.5391" width="7.36523" height="7.36523" fill="#FF453F"/>
<rect x="6.79883" y="28.9043" width="7.36523" height="7.36523" fill="#FF453F"/>
<rect x="21.5293" y="36.2695" width="7.36523" height="7.36523" fill="#FF453F"/>
<rect x="14.1641" y="36.2695" width="7.36523" height="7.36523" fill="#FF453F"/>
<rect x="21.5293" y="43.6348" width="7.36523" height="7.36523" fill="#FF453F"/>
<rect x="21.5293" y="51" width="7.36523" height="7.36523" fill="#FF453F"/>
<rect x="43.625" y="21.5391" width="7.36523" height="7.36523" fill="#FF453F"/>
<rect x="50.9902" y="21.5391" width="7.36523" height="7.36523" fill="#FF453F"/>
<rect x="80.4512" y="36.2695" width="7.36523" height="7.36523" fill="#FF453F"/>
<rect x="87.8164" y="28.9043" width="7.36523" height="7.36523" fill="#FF453F"/>
<rect x="36.2598" y="36.2695" width="7.36523" height="7.36523" fill="black"/>
<rect x="73.0859" y="36.2695" width="7.36523" height="7.36523" fill="#FF453F"/>
<rect x="73.0859" y="43.6348" width="7.36523" height="7.36523" fill="#FF453F"/>
<rect x="73.0859" y="51" width="7.36523" height="7.36523" fill="#FF453F"/>
<rect x="73.0859" y="21.5391" width="7.36523" height="7.36523" fill="black"/>
<rect x="21.5293" y="21.5391" width="7.36523" height="7.36523" fill="black"/>
<rect x="58.3555" y="36.2695" width="7.36523" height="7.36523" fill="black"/>
</g>
<defs>
<clipPath id="clip0_169_50774">
<rect width="88.3828" height="88.3828" fill="white" transform="translate(6.79883 6.80859)"/>
</clipPath>
</defs>
</svg>
