<svg width="260" height="59" viewBox="0 0 260 59" fill="none" xmlns="http://www.w3.org/2000/svg">
<g clip-path="url(#clip0_169_50305)">
<rect x="7.76367" y="3.77759" width="4.03709" height="4.03709" fill="#FF453F"/>
<rect x="36.0234" y="3.77759" width="4.03709" height="4.03709" fill="#FF453F"/>
<rect x="11.8008" y="3.77759" width="4.03709" height="4.03709" fill="#FF453F"/>
<rect x="40.0605" y="3.77759" width="4.03709" height="4.03709" fill="#FF453F"/>
<rect x="15.8379" y="3.77759" width="4.03709" height="4.03709" fill="#FF453F"/>
<rect x="19.875" y="7.8147" width="4.03709" height="4.03709" fill="#FF453F"/>
<rect x="31.9863" y="7.8147" width="4.03709" height="4.03709" fill="#FF453F"/>
<rect x="19.875" y="11.8518" width="4.03709" height="4.03709" fill="#FF453F"/>
<rect x="31.9863" y="11.8518" width="4.03709" height="4.03709" fill="#FF453F"/>
<rect x="44.0977" y="3.77759" width="4.03709" height="4.03709" fill="#FF453F"/>
<rect x="3.72656" y="7.8147" width="4.03709" height="4.03709" fill="#FF453F"/>
<rect x="48.1348" y="7.8147" width="4.03709" height="4.03709" fill="#FF453F"/>
<rect x="44.0977" y="32.0371" width="4.03709" height="4.03709" fill="#FF453F"/>
<rect x="48.1348" y="36.0742" width="4.03709" height="4.03709" fill="#FF453F"/>
<rect x="7.76367" y="32.0371" width="4.03709" height="4.03709" fill="#FF453F"/>
<rect x="3.72656" y="36.0742" width="4.03709" height="4.03709" fill="#FF453F"/>
<rect x="3.72656" y="40.1113" width="4.03709" height="4.03709" fill="#FF453F"/>
<rect x="31.9863" y="48.1855" width="4.03709" height="4.03709" fill="#FF453F"/>
<rect x="48.1348" y="44.1484" width="4.03709" height="4.03709" fill="#FF453F"/>
<rect x="48.1348" y="48.1855" width="4.03709" height="4.03709" fill="#FF453F"/>
<rect x="36.0234" y="48.1855" width="4.03709" height="4.03709" fill="#FF453F"/>
<rect x="40.0605" y="44.1484" width="4.03709" height="4.03709" fill="#FF453F"/>
<rect x="40.0605" y="48.1855" width="4.03709" height="4.03709" fill="#FF453F"/>
<rect x="40.0605" y="40.1113" width="4.03709" height="4.03709" fill="#FF453F"/>
<rect x="11.8008" y="40.1113" width="4.03709" height="4.03709" fill="#FF453F"/>
<rect x="3.72656" y="44.1484" width="4.03709" height="4.03709" fill="#FF453F"/>
<rect x="3.72656" y="48.1855" width="4.03709" height="4.03709" fill="#FF453F"/>
<rect x="19.875" y="48.1855" width="4.03709" height="4.03709" fill="#FF453F"/>
<rect x="15.8379" y="48.1855" width="4.03709" height="4.03709" fill="#FF453F"/>
<rect x="11.8008" y="44.1484" width="4.03709" height="4.03709" fill="#FF453F"/>
<rect x="11.8008" y="48.1855" width="4.03709" height="4.03709" fill="#FF453F"/>
<rect x="36.0234" y="48.1855" width="4.03709" height="4.03709" fill="#FF453F"/>
<rect x="48.1348" y="40.1113" width="4.03709" height="4.03709" fill="#FF453F"/>
<rect x="15.8379" y="32.0371" width="4.03709" height="4.03709" fill="#FF453F"/>
<rect x="19.875" y="32.0371" width="4.03709" height="4.03709" fill="#FF453F"/>
<rect x="23.9121" y="32.0371" width="4.03709" height="4.03709" fill="#FF453F"/>
<rect x="23.9121" y="19.926" width="4.03709" height="4.03709" fill="black"/>
<rect x="27.9492" y="32.0371" width="4.03709" height="4.03709" fill="#FF453F"/>
<rect x="27.9492" y="19.926" width="4.03709" height="4.03709" fill="black"/>
<rect x="31.9863" y="32.0371" width="4.03709" height="4.03709" fill="#FF453F"/>
<rect x="36.0234" y="32.0371" width="4.03709" height="4.03709" fill="#FF453F"/>
<rect x="3.72656" y="11.8518" width="4.03709" height="4.03709" fill="#FF453F"/>
<rect x="48.1348" y="11.8518" width="4.03709" height="4.03709" fill="#FF453F"/>
<rect x="3.72656" y="15.8889" width="4.03709" height="4.03709" fill="#FF453F"/>
<rect x="11.8008" y="19.926" width="4.03709" height="4.03709" fill="#FF453F"/>
<rect x="7.76367" y="19.926" width="4.03709" height="4.03709" fill="#FF453F"/>
<rect x="11.8008" y="23.9631" width="4.03709" height="4.03709" fill="#FF453F"/>
<rect x="11.8008" y="28.0002" width="4.03709" height="4.03709" fill="#FF453F"/>
<rect x="23.9121" y="11.8518" width="4.03709" height="4.03709" fill="#FF453F"/>
<rect x="27.9492" y="11.8518" width="4.03709" height="4.03709" fill="#FF453F"/>
<rect x="44.0977" y="19.926" width="4.03709" height="4.03709" fill="#FF453F"/>
<rect x="48.1348" y="15.8889" width="4.03709" height="4.03709" fill="#FF453F"/>
<rect x="19.875" y="19.926" width="4.03709" height="4.03709" fill="black"/>
<rect x="40.0605" y="19.926" width="4.03709" height="4.03709" fill="#FF453F"/>
<rect x="40.0605" y="23.9631" width="4.03709" height="4.03709" fill="#FF453F"/>
<rect x="40.0605" y="28.0002" width="4.03709" height="4.03709" fill="#FF453F"/>
<rect x="40.0605" y="11.8518" width="4.03709" height="4.03709" fill="black"/>
<rect x="11.8008" y="11.8518" width="4.03709" height="4.03709" fill="black"/>
<rect x="31.9863" y="19.926" width="4.03709" height="4.03709" fill="black"/>
</g>
<path d="M71.3249 3.55615L72.6055 9.85629H73.0643L74.3449 3.55615H78.0839V13.4789H76.0432V5.29554H75.5844L73.8039 13.4789H71.8728L70.0923 5.29554H69.6335V13.4789H67.5859V3.55615H71.3249ZM83.0419 5.65849C85.3975 5.65849 86.7671 7.06917 86.7671 9.644C86.7671 12.2188 85.4044 13.6296 83.0419 13.6296C80.6793 13.6296 79.3165 12.2188 79.3165 9.644C79.3234 7.06232 80.6861 5.65849 83.0419 5.65849ZM83.0419 12.0408C84.1032 12.0408 84.61 11.4656 84.61 10.1987V9.07562C84.61 7.80875 84.1101 7.23351 83.0419 7.23351C81.9735 7.23351 81.4737 7.80875 81.4737 9.07562V10.1987C81.4805 11.4656 81.9804 12.0408 83.0419 12.0408ZM87.6025 11.9997L91.4991 7.28145H87.6574V5.80229H93.9301V7.28145L90.0336 11.9997H93.9849V13.4789H87.6025V11.9997ZM95.0532 5.80229H97.9293V13.4789H95.8886V7.28145H95.0532V5.80229ZM95.8886 3.55615H97.9293V5.03532H95.8886V3.55615ZM99.2784 3.55615H102.154V13.4789H100.114V5.03532H99.2784V3.55615ZM103.51 3.55615H106.387V13.4789H104.346V5.03532H103.51V3.55615ZM110.769 5.65849C111.906 5.65849 112.652 6.22002 112.872 7.19928H113.33V5.80229H115.761V7.28145H114.926V11.9997H115.761V13.4789H114.597C113.776 13.4789 113.33 13.0337 113.33 12.212V12.0819H112.872C112.652 13.0611 111.906 13.6227 110.769 13.6227C108.975 13.6227 107.708 12.0955 107.708 9.63716C107.708 7.17874 108.975 5.65849 110.769 5.65849ZM111.372 12.0408C112.406 12.0408 112.878 11.4656 112.878 10.1987V9.07562C112.878 7.80875 112.406 7.23351 111.372 7.23351C110.338 7.23351 109.865 7.80875 109.865 9.07562V10.1987C109.865 11.4656 110.338 12.0408 111.372 12.0408Z" fill="black"/>
<path d="M121.242 3.58675H123.688L126.699 9.29H127.162C127.066 8.42149 127.018 7.81352 127.018 7.46612V3.58675H128.957V13.5747H127.076L123.5 6.52523H123.037C123.134 7.39374 123.182 8.0017 123.182 8.34911V13.5747H121.242V3.58675ZM134.123 13.7195C133.351 13.7195 132.69 13.565 132.14 13.2562C131.599 12.9474 131.184 12.4939 130.895 11.8955C130.605 11.2972 130.461 10.5687 130.461 9.70978C130.461 8.85092 130.605 8.12233 130.895 7.52402C131.184 6.92571 131.599 6.47215 132.14 6.16335C132.69 5.85453 133.351 5.70014 134.123 5.70014C134.876 5.70014 135.513 5.84489 136.034 6.13439C136.564 6.41425 136.97 6.83403 137.25 7.39374C137.529 7.9438 137.669 8.61932 137.669 9.42028V10.0861H131.72V8.84127H137.004L135.715 9.59398V9.13078C135.715 8.44561 135.585 7.94863 135.324 7.63982C135.073 7.33102 134.673 7.17661 134.123 7.17661C133.573 7.17661 133.168 7.33102 132.907 7.63982C132.656 7.94863 132.531 8.44561 132.531 9.13078V10.2454C132.531 10.9209 132.656 11.4179 132.907 11.7363C133.168 12.0452 133.573 12.1995 134.123 12.1995C134.451 12.1995 134.721 12.1464 134.934 12.0403C135.155 11.9342 135.315 11.8087 135.411 11.6639C135.508 11.5192 135.556 11.3744 135.556 11.2297V11.0994H137.568C137.394 11.9582 137.013 12.6097 136.425 13.0536C135.836 13.4975 135.069 13.7195 134.123 13.7195ZM138.314 5.84489H140.312L141.571 11.9535H142.034L143.322 5.84489H145.392L146.695 11.9535H147.144L148.403 5.84489H150.314L148.62 13.5747H145.436L144.538 9.14525H144.09L143.192 13.5747H140.008L138.314 5.84489ZM155.012 3.58675H159.254C160.287 3.58675 161.068 3.84248 161.599 4.35394C162.13 4.8654 162.395 5.62293 162.395 6.62655C162.395 7.59157 162.13 8.32498 161.599 8.82679C161.078 9.31895 160.311 9.56503 159.297 9.56503H157.01V13.5747H155.012V3.58675ZM159.124 8.18988C159.539 8.18988 159.843 8.08373 160.035 7.87143C160.238 7.65913 160.339 7.33584 160.339 6.90158V6.33705C160.339 5.90279 160.238 5.58433 160.035 5.38168C159.843 5.16937 159.539 5.06323 159.124 5.06323H157.01V8.18988H159.124ZM163.878 7.26346H163.038V5.84489H165.557V7.36479H166.021C166.165 6.80508 166.392 6.39495 166.701 6.13439C167.019 5.86419 167.444 5.72908 167.975 5.72908H168.843V7.26346H167.15C166.696 7.26346 166.358 7.39374 166.136 7.6543C165.924 7.9052 165.818 8.30569 165.818 8.85575V13.5747H163.878V7.26346ZM172.885 13.7195C172.103 13.7195 171.432 13.565 170.873 13.2562C170.323 12.9474 169.903 12.4939 169.613 11.8955C169.324 11.2972 169.179 10.5687 169.179 9.70978C169.179 8.85092 169.324 8.12233 169.613 7.52402C169.903 6.92571 170.323 6.47215 170.873 6.16335C171.432 5.85453 172.103 5.70014 172.885 5.70014C173.657 5.70014 174.318 5.85453 174.868 6.16335C175.428 6.47215 175.853 6.92571 176.142 7.52402C176.431 8.12233 176.576 8.85092 176.576 9.70978C176.576 10.5687 176.431 11.2972 176.142 11.8955C175.853 12.4939 175.428 12.9474 174.868 13.2562C174.318 13.565 173.657 13.7195 172.885 13.7195ZM172.885 12.1995C173.445 12.1995 173.855 12.0452 174.115 11.7363C174.376 11.4179 174.506 10.9209 174.506 10.2454V9.1742C174.506 8.49868 174.376 8.00653 174.115 7.69772C173.855 7.37927 173.445 7.22004 172.885 7.22004C172.316 7.22004 171.901 7.37927 171.64 7.69772C171.38 8.00653 171.249 8.49868 171.249 9.1742V10.2454C171.249 10.9209 171.38 11.4179 171.64 11.7363C171.901 12.0452 172.316 12.1995 172.885 12.1995ZM180.528 13.7195C179.949 13.7195 179.438 13.5602 178.994 13.2417C178.559 12.9137 178.221 12.4504 177.98 11.8521C177.749 11.2442 177.633 10.53 177.633 9.70978C177.633 8.87987 177.749 8.16576 177.98 7.56744C178.212 6.95949 178.544 6.49628 178.979 6.17782C179.423 5.85936 179.94 5.70014 180.528 5.70014C181.068 5.70014 181.503 5.83041 181.831 6.09096C182.168 6.34187 182.409 6.72788 182.555 7.24899H182.989C182.892 6.38047 182.844 5.77251 182.844 5.42511V5.00532H181.975V3.58675H184.798V12.1561H185.638V13.5747H184.335C183.939 13.5747 183.635 13.4686 183.423 13.2562C183.22 13.0439 183.119 12.7399 183.119 12.3443V12.0259H182.67C182.516 12.5855 182.255 13.0102 181.888 13.2997C181.532 13.5795 181.078 13.7195 180.528 13.7195ZM181.281 12.1995C181.821 12.1995 182.217 12.0452 182.468 11.7363C182.718 11.4179 182.844 10.9209 182.844 10.2454V9.1742C182.844 8.49868 182.718 8.00653 182.468 7.69772C182.217 7.37927 181.821 7.22004 181.281 7.22004C180.73 7.22004 180.325 7.37927 180.065 7.69772C179.814 8.00653 179.688 8.49868 179.688 9.1742V10.2454C179.688 10.9209 179.814 11.4179 180.065 11.7363C180.325 12.0452 180.73 12.1995 181.281 12.1995ZM189.277 13.7195C188.506 13.7195 187.916 13.4878 187.511 13.0246C187.116 12.5518 186.918 11.8666 186.918 10.9692V7.26346H186.079V5.84489H188.887V10.5928C188.887 11.1525 188.988 11.5626 189.19 11.8231C189.403 12.074 189.736 12.1995 190.189 12.1995C190.643 12.1995 190.976 12.074 191.188 11.8231C191.41 11.5626 191.521 11.1525 191.521 10.5928V5.84489H193.475V12.1561H194.315V13.5747H193.012C192.616 13.5747 192.312 13.4686 192.1 13.2562C191.888 13.0439 191.781 12.7399 191.781 12.3443V12.0548H191.333C191.198 12.6241 190.961 13.0439 190.623 13.3141C190.286 13.5844 189.837 13.7195 189.277 13.7195ZM198.78 13.7195C198.018 13.7195 197.367 13.565 196.826 13.2562C196.285 12.9474 195.87 12.4939 195.582 11.8955C195.292 11.2972 195.147 10.5687 195.147 9.70978C195.147 8.85092 195.292 8.12233 195.582 7.52402C195.87 6.92571 196.285 6.47215 196.826 6.16335C197.367 5.85453 198.018 5.70014 198.78 5.70014C199.755 5.70014 200.537 5.94139 201.126 6.4239C201.723 6.90641 202.095 7.60605 202.24 8.52281H200.257V8.33463C200.257 8.17058 200.204 8.0017 200.098 7.828C200.001 7.6543 199.842 7.50955 199.62 7.39374C199.398 7.27794 199.118 7.22004 198.78 7.22004C198.24 7.22004 197.844 7.37927 197.594 7.69772C197.342 8.00653 197.217 8.49386 197.217 9.15972V10.2598C197.217 10.9257 197.342 11.4179 197.594 11.7363C197.844 12.0452 198.24 12.1995 198.78 12.1995C199.118 12.1995 199.398 12.1416 199.62 12.0259C199.842 11.9004 200.001 11.746 200.098 11.5626C200.204 11.3793 200.257 11.1911 200.257 10.9981V10.781H202.254C202.129 11.7363 201.767 12.4649 201.169 12.9667C200.57 13.4686 199.775 13.7195 198.78 13.7195ZM205.331 13.5747C204.935 13.5747 204.631 13.4686 204.419 13.2562C204.216 13.0439 204.115 12.7399 204.115 12.3443V5.84489L204.78 4.29603H206.069V12.1561H207.589V13.5747H205.331ZM202.942 5.84489H207.589V7.26346H202.942V5.84489ZM211.891 13.7195C210.859 13.7195 210.068 13.512 209.517 13.097C208.977 12.6724 208.639 12.0065 208.504 11.0994H210.444V11.2442C210.444 11.4372 210.492 11.6109 210.589 11.7653C210.685 11.9101 210.84 12.0259 211.052 12.1127C211.274 12.1995 211.554 12.243 211.891 12.243C212.345 12.243 212.688 12.1754 212.919 12.0403C213.151 11.9052 213.266 11.7073 213.266 11.4468C213.266 11.2345 213.194 11.0704 213.049 10.9546C212.915 10.8388 212.673 10.7375 212.326 10.6506L210.733 10.3177C209.981 10.144 209.431 9.88831 209.083 9.55056C208.746 9.20315 208.576 8.73511 208.576 8.14646C208.576 7.35514 208.856 6.752 209.416 6.33705C209.986 5.91244 210.801 5.70014 211.863 5.70014C212.885 5.70014 213.662 5.91244 214.193 6.33705C214.733 6.752 215.071 7.41304 215.207 8.32016H213.281V8.1754C213.281 7.98241 213.233 7.81352 213.136 7.66877C213.04 7.51437 212.885 7.39374 212.673 7.30689C212.461 7.22004 212.191 7.17661 211.863 7.17661C211.428 7.17661 211.095 7.24416 210.864 7.37927C210.642 7.51437 210.531 7.7122 210.531 7.97275C210.531 8.18506 210.599 8.34911 210.733 8.46491C210.878 8.58072 211.115 8.68204 211.443 8.7689L213.035 9.10182C213.797 9.27553 214.352 9.53608 214.7 9.88348C215.056 10.2212 215.235 10.6796 215.235 11.2586C215.235 12.0499 214.946 12.6579 214.367 13.0825C213.797 13.5071 212.972 13.7195 211.891 13.7195Z" fill="black"/>
<path d="M67.5541 21.6616H80.4043C83.1315 21.6616 85.2361 22.373 86.7183 23.7959C88.23 25.1891 88.9859 27.19 88.9859 29.7986C88.9859 31.755 88.5561 33.252 87.6965 34.2895C86.8368 35.2973 85.577 35.905 83.917 36.1125V37.2686C85.6956 37.4761 87.0295 38.1282 87.9188 39.225C88.8377 40.2922 89.2972 41.8484 89.2972 43.8938C89.2972 46.5913 88.5265 48.6811 86.985 50.1633C85.4733 51.6158 83.3241 52.342 80.5377 52.342H67.5541V21.6616ZM80.182 48.7849C81.6345 48.7849 82.7165 48.4143 83.4279 47.6733C84.1393 46.9322 84.495 45.8058 84.495 44.294V42.8711C84.495 41.3297 84.1393 40.1884 83.4279 39.4473C82.7165 38.7063 81.6345 38.3357 80.182 38.3357H72.2228V48.7849H80.182ZM80.0931 35.0454C81.4566 35.0454 82.4793 34.6896 83.1611 33.9782C83.8725 33.2371 84.2282 32.1404 84.2282 30.6878V29.4873C84.2282 28.0644 83.8874 26.9973 83.2056 26.2859C82.5238 25.5744 81.4863 25.2187 80.0931 25.2187H72.2228V35.0454H80.0931ZM94.6319 32.0218H91.6528V28.598H98.4558V32.9111H99.7008C100.264 31.34 101.05 30.1839 102.057 29.4428C103.065 28.7018 104.384 28.3312 106.015 28.3312H109.261V32.0218H104.192C102.443 32.0218 101.168 32.4961 100.368 33.4446C99.5674 34.3932 99.1673 35.905 99.1673 37.98V52.342H94.6319V32.0218ZM119.227 52.7867C117.359 52.7867 115.744 52.3124 114.38 51.3638C113.016 50.3856 111.964 48.9776 111.223 47.1397C110.512 45.2722 110.156 43.049 110.156 40.47C110.156 37.8911 110.512 35.6827 111.223 33.8448C111.964 31.9773 113.016 30.5693 114.38 29.6207C115.744 28.6425 117.359 28.1534 119.227 28.1534C120.887 28.1534 122.28 28.5684 123.406 29.3984C124.533 30.1987 125.407 31.4141 126.03 33.0445H127.23V28.598H134.033V32.0218H131.054V48.9183H134.033V52.342H130.209C129.231 52.342 128.49 52.0901 127.986 51.5861C127.482 51.0526 127.23 50.2967 127.23 49.3185V47.8956H126.03C125.407 49.526 124.533 50.7561 123.406 51.5861C122.28 52.3865 120.887 52.7867 119.227 52.7867ZM120.738 49.0961C122.725 49.0961 124.177 48.5181 125.096 47.362C126.045 46.2059 126.519 44.3533 126.519 41.804V39.1361C126.519 36.5868 126.045 34.7341 125.096 33.578C124.177 32.422 122.725 31.8439 120.738 31.8439C118.752 31.8439 117.285 32.422 116.336 33.578C115.418 34.7341 114.958 36.5868 114.958 39.1361V41.804C114.958 44.3533 115.418 46.2059 116.336 47.362C117.285 48.5181 118.752 49.0961 120.738 49.0961ZM136.889 54.7876H150.496C151.385 54.7876 152.007 54.6542 152.363 54.3874C152.748 54.1206 152.941 53.6612 152.941 53.009C152.941 52.3569 152.748 51.8826 152.363 51.5861C152.007 51.2897 151.385 51.1415 150.496 51.1415H141.781C140.15 51.1415 138.92 50.8599 138.09 50.2967C137.29 49.7335 136.889 48.9035 136.889 47.8067C136.889 46.7988 137.216 46.0133 137.868 45.45C138.549 44.8868 139.513 44.5608 140.758 44.4718V43.4047C139.424 42.8711 138.416 42.0263 137.734 40.8702C137.052 39.7141 136.712 38.2764 136.712 36.5572C136.712 33.8893 137.556 31.8291 139.246 30.3766C140.965 28.8944 143.352 28.1534 146.405 28.1534C149.458 28.1534 151.83 28.8944 153.519 30.3766C155.209 31.8291 156.054 33.8893 156.054 36.5572C156.054 39.1657 155.209 41.1815 153.519 42.6043C151.859 43.9975 149.532 44.6942 146.538 44.6942H143.114C142.373 44.6942 141.84 44.8127 141.514 45.0499C141.217 45.2574 141.069 45.6131 141.069 46.117C141.069 46.5913 141.217 46.947 141.514 47.1842C141.84 47.3917 142.373 47.4954 143.114 47.4954H151.429C153.386 47.4954 154.883 47.9401 155.92 48.8293C156.958 49.7186 157.477 51.0081 157.477 52.6978C157.477 54.506 156.898 55.8696 155.742 56.7885C154.586 57.7371 152.911 58.2114 150.718 58.2114H136.889V54.7876ZM146.405 41.4038C148.154 41.4038 149.458 41.0481 150.318 40.3366C151.177 39.5956 151.607 38.4543 151.607 36.9129V36.1125C151.607 34.6007 151.177 33.4891 150.318 32.7777C149.458 32.0366 148.154 31.6661 146.405 31.6661C144.656 31.6661 143.352 32.0366 142.492 32.7777C141.632 33.4891 141.203 34.6007 141.203 36.1125V36.9129C141.203 38.4543 141.632 39.5956 142.492 40.3366C143.352 41.0481 144.656 41.4038 146.405 41.4038ZM150.095 29.7096C150.095 28.1682 150.407 27.0269 151.029 26.2859C151.681 25.5448 152.674 25.1743 154.008 25.1743H157.299V28.598H152.674C152.111 28.598 151.681 28.7611 151.385 29.0871C151.118 29.3836 150.985 29.8875 150.985 30.5989L150.095 29.7096ZM171.403 21.6616H191.634V30.5989H187.721V25.2187H176.072V35.0454H187.188V38.3357H176.072V52.342H171.403V21.6616ZM196.353 32.0218H193.374V28.598H200.177V32.9111H201.422C201.985 31.34 202.771 30.1839 203.779 29.4428C204.786 28.7018 206.106 28.3312 207.736 28.3312H210.982V32.0218H205.913C204.164 32.0218 202.889 32.4961 202.089 33.4446C201.289 34.3932 200.888 35.905 200.888 37.98V52.342H196.353V32.0218ZM222.685 52.7867C220.373 52.7867 218.387 52.3124 216.727 51.3638C215.096 50.4152 213.851 49.022 212.992 47.1842C212.132 45.3463 211.702 43.1083 211.702 40.47C211.702 37.8318 212.132 35.5938 212.992 33.7559C213.851 31.918 215.096 30.5248 216.727 29.5762C218.387 28.6277 220.373 28.1534 222.685 28.1534C224.968 28.1534 226.924 28.6277 228.554 29.5762C230.214 30.5248 231.474 31.918 232.334 33.7559C233.193 35.5938 233.623 37.8318 233.623 40.47C233.623 43.1083 233.193 45.3463 232.334 47.1842C231.474 49.022 230.214 50.4152 228.554 51.3638C226.924 52.3124 224.968 52.7867 222.685 52.7867ZM222.685 49.0961C224.79 49.0961 226.331 48.5181 227.309 47.362C228.317 46.1763 228.821 44.3088 228.821 41.7595V39.1806C228.821 36.6313 228.317 34.7786 227.309 33.6225C226.331 32.4368 224.79 31.8439 222.685 31.8439C220.551 31.8439 218.98 32.4368 217.972 33.6225C216.994 34.7786 216.504 36.6313 216.504 39.1806V41.7595C216.504 44.3088 216.994 46.1763 217.972 47.362C218.98 48.5181 220.551 49.0961 222.685 49.0961ZM237.047 54.7876H250.654C251.543 54.7876 252.165 54.6542 252.521 54.3874C252.906 54.1206 253.099 53.6612 253.099 53.009C253.099 52.3569 252.906 51.8826 252.521 51.5861C252.165 51.2897 251.543 51.1415 250.654 51.1415H241.939C240.308 51.1415 239.078 50.8599 238.248 50.2967C237.448 49.7335 237.047 48.9035 237.047 47.8067C237.047 46.7988 237.373 46.0133 238.026 45.45C238.707 44.8868 239.671 44.5608 240.916 44.4718V43.4047C239.582 42.8711 238.574 42.0263 237.892 40.8702C237.21 39.7141 236.87 38.2764 236.87 36.5572C236.87 33.8893 237.714 31.8291 239.404 30.3766C241.123 28.8944 243.51 28.1534 246.563 28.1534C249.616 28.1534 251.987 28.8944 253.677 30.3766C255.367 31.8291 256.212 33.8893 256.212 36.5572C256.212 39.1657 255.367 41.1815 253.677 42.6043C252.017 43.9975 249.69 44.6942 246.696 44.6942H243.272C242.531 44.6942 241.998 44.8127 241.672 45.0499C241.375 45.2574 241.227 45.6131 241.227 46.117C241.227 46.5913 241.375 46.947 241.672 47.1842C241.998 47.3917 242.531 47.4954 243.272 47.4954H251.587C253.544 47.4954 255.041 47.9401 256.078 48.8293C257.116 49.7186 257.634 51.0081 257.634 52.6978C257.634 54.506 257.056 55.8696 255.9 56.7885C254.744 57.7371 253.069 58.2114 250.876 58.2114H237.047V54.7876ZM246.563 41.4038C248.312 41.4038 249.616 41.0481 250.476 40.3366C251.335 39.5956 251.765 38.4543 251.765 36.9129V36.1125C251.765 34.6007 251.335 33.4891 250.476 32.7777C249.616 32.0366 248.312 31.6661 246.563 31.6661C244.814 31.6661 243.51 32.0366 242.65 32.7777C241.79 33.4891 241.36 34.6007 241.36 36.1125V36.9129C241.36 38.4543 241.79 39.5956 242.65 40.3366C243.51 41.0481 244.814 41.4038 246.563 41.4038ZM250.253 29.7096C250.253 28.1682 250.565 27.0269 251.187 26.2859C251.839 25.5448 252.832 25.1743 254.166 25.1743H257.457V28.598H252.832C252.269 28.598 251.839 28.7611 251.543 29.0871C251.276 29.3836 251.143 29.8875 251.143 30.5989L250.253 29.7096Z" fill="black"/>
<defs>
<clipPath id="clip0_169_50305">
<rect width="48.4451" height="48.4451" fill="white" transform="translate(3.72656 3.77759)"/>
</clipPath>
</defs>
</svg>
