<svg width="196" height="55" viewBox="0 0 196 55" fill="none" xmlns="http://www.w3.org/2000/svg">
<path d="M7.82119 0L9.10449 6.31358H9.56428L10.8476 0H14.5946V9.94389H12.5495V1.7431H12.0897L10.3054 9.94389H8.3702L6.58592 1.7431H6.12613V9.94389H4.07422V0H7.82119ZM19.5631 2.10682C21.9238 2.10682 23.2963 3.52051 23.2963 6.10084C23.2963 8.68115 21.9307 10.0949 19.5631 10.0949C17.1955 10.0949 15.8298 8.68115 15.8298 6.10084C15.8367 3.51364 17.2023 2.10682 19.5631 2.10682ZM19.5631 8.50276C20.6268 8.50276 21.1346 7.92627 21.1346 6.65671V5.53124C21.1346 4.26167 20.6336 3.68521 19.5631 3.68521C18.4925 3.68521 17.9916 4.26167 17.9916 5.53124V6.65671C17.9984 7.92627 18.4994 8.50276 19.5631 8.50276ZM24.1335 8.4616L28.0384 3.73325H24.1884V2.25093H30.4746V3.73325L26.5698 8.4616H30.5295V9.94389H24.1335V8.4616ZM31.6001 2.25093H34.4823V9.94389H32.4373V3.73325H31.6001V2.25093ZM32.4373 0H34.4823V1.48232H32.4373V0ZM35.8342 0H38.7165V9.94389H36.6715V1.48232H35.8342V0ZM40.0753 0H42.9576V9.94389H40.9126V1.48232H40.0753V0ZM47.3496 2.10682C48.4888 2.10682 49.2369 2.66955 49.4565 3.6509H49.9163V2.25093H52.3525V3.73325H51.5153V8.4616H52.3525V9.94389H51.1859C50.3624 9.94389 49.9163 9.4978 49.9163 8.6743V8.54391H49.4565C49.2369 9.52526 48.4888 10.088 47.3496 10.088C45.5516 10.088 44.2821 8.55761 44.2821 6.09397C44.2821 3.63031 45.5516 2.10682 47.3496 2.10682ZM47.9536 8.50276C48.9899 8.50276 49.4633 7.92627 49.4633 6.65671V5.53124C49.4633 4.26167 48.9899 3.68521 47.9536 3.68521C46.9173 3.68521 46.4438 4.26167 46.4438 5.53124V6.65671C46.4438 7.92627 46.9173 8.50276 47.9536 8.50276Z" fill="black"/>
<path d="M57.8448 0.030658H60.2964L63.3136 5.74608H63.7778C63.6811 4.87571 63.6327 4.26645 63.6327 3.91831V0.030658H65.5766V10.0399H63.6908L60.1078 2.97541H59.6436C59.7403 3.84577 59.7887 4.45503 59.7887 4.80318V10.0399H57.8448V0.030658ZM70.7531 10.185C69.9795 10.185 69.317 10.0302 68.7658 9.72077C68.2242 9.41128 67.8084 8.95677 67.5183 8.35717C67.2282 7.75758 67.0831 7.02746 67.0831 6.16676C67.0831 5.30606 67.2282 4.57592 67.5183 3.97633C67.8084 3.37674 68.2242 2.92222 68.7658 2.61275C69.317 2.30328 69.9795 2.14856 70.7531 2.14856C71.5074 2.14856 72.1458 2.29362 72.668 2.58374C73.1999 2.86419 73.606 3.28487 73.8865 3.84577C74.1669 4.39701 74.3072 5.07396 74.3072 5.87664V6.54392H68.3451V5.29639H73.6399L72.3488 6.05071V5.58651C72.3488 4.89989 72.2182 4.40184 71.9572 4.09238C71.7057 3.78292 71.3044 3.62818 70.7531 3.62818C70.2019 3.62818 69.7957 3.78292 69.5346 4.09238C69.2832 4.40184 69.1575 4.89989 69.1575 5.58651V6.70349C69.1575 7.38046 69.2832 7.87848 69.5346 8.19761C69.7957 8.50711 70.2019 8.66182 70.7531 8.66182C71.0819 8.66182 71.3527 8.60861 71.5655 8.50226C71.7879 8.3959 71.9475 8.27015 72.0442 8.12507C72.1409 7.98005 72.1893 7.83497 72.1893 7.68989V7.55935H74.2056C74.0315 8.42001 73.6495 9.07282 73.0596 9.5177C72.4697 9.96251 71.7009 10.185 70.7531 10.185ZM74.953 2.29362H76.9549L78.2167 8.41523H78.6811L79.9721 2.29362H82.0464L83.3517 8.41523H83.8018L85.0636 2.29362H86.9788L85.2812 10.0399H82.0899L81.1905 5.60102H80.7411L79.8416 10.0399H76.6503L74.953 2.29362ZM91.6873 0.030658H95.9378C96.9728 0.030658 97.756 0.286933 98.2881 0.799485C98.8195 1.31204 99.0855 2.07119 99.0855 3.07695C99.0855 4.04403 98.8195 4.779 98.2881 5.28188C97.7652 5.77509 96.997 6.02169 95.9813 6.02169H93.6895V10.0399H91.6873V0.030658ZM95.8072 4.64361C96.2231 4.64361 96.5277 4.53723 96.721 4.32448C96.9243 4.11172 97.0256 3.78775 97.0256 3.35257V2.78683C97.0256 2.35164 96.9243 2.0325 96.721 1.82942C96.5277 1.61666 96.2231 1.51029 95.8072 1.51029H93.6895V4.64361H95.8072ZM100.572 3.71522H99.7304V2.29362H102.255V3.81676H102.719C102.864 3.25586 103.091 2.84485 103.401 2.58374C103.72 2.31296 104.146 2.17757 104.677 2.17757H105.547V3.71522H103.85C103.396 3.71522 103.057 3.84577 102.835 4.10689C102.622 4.35832 102.516 4.75967 102.516 5.3109V10.0399H100.572V3.71522ZM109.598 10.185C108.814 10.185 108.142 10.0302 107.582 9.72077C107.03 9.41128 106.609 8.95677 106.319 8.35717C106.029 7.75758 105.884 7.02746 105.884 6.16676C105.884 5.30606 106.029 4.57592 106.319 3.97633C106.609 3.37674 107.03 2.92222 107.582 2.61275C108.142 2.30328 108.814 2.14856 109.598 2.14856C110.371 2.14856 111.034 2.30328 111.585 2.61275C112.146 2.92222 112.572 3.37674 112.861 3.97633C113.152 4.57592 113.296 5.30606 113.296 6.16676C113.296 7.02746 113.152 7.75758 112.861 8.35717C112.572 8.95677 112.146 9.41128 111.585 9.72077C111.034 10.0302 110.371 10.185 109.598 10.185ZM109.598 8.66182C110.159 8.66182 110.57 8.50711 110.831 8.19761C111.092 7.87848 111.222 7.38046 111.222 6.70349V5.63003C111.222 4.95307 111.092 4.45987 110.831 4.15041C110.57 3.83127 110.159 3.6717 109.598 3.6717C109.027 3.6717 108.612 3.83127 108.35 4.15041C108.089 4.45987 107.959 4.95307 107.959 5.63003V6.70349C107.959 7.38046 108.089 7.87848 108.35 8.19761C108.612 8.50711 109.027 8.66182 109.598 8.66182ZM117.257 10.185C116.677 10.185 116.165 10.0254 115.72 9.70622C115.284 9.37747 114.946 8.91326 114.704 8.31366C114.472 7.70444 114.356 6.98877 114.356 6.16676C114.356 5.33507 114.472 4.61944 114.704 4.01985C114.936 3.41059 115.269 2.9464 115.705 2.62726C116.15 2.30812 116.668 2.14856 117.257 2.14856C117.799 2.14856 118.234 2.27911 118.563 2.54022C118.901 2.79166 119.143 3.1785 119.288 3.70071H119.723C119.626 2.83034 119.578 2.22108 119.578 1.87294V1.45226H118.708V0.030658H121.536V8.61831H122.378V10.0399H121.072C120.675 10.0399 120.371 9.93355 120.158 9.72077C119.955 9.508 119.854 9.20335 119.854 8.8069V8.48778H119.404C119.25 9.04864 118.988 9.47419 118.62 9.76429C118.263 10.0448 117.808 10.185 117.257 10.185ZM118.011 8.66182C118.553 8.66182 118.949 8.50711 119.201 8.19761C119.452 7.87848 119.578 7.38046 119.578 6.70349V5.63003C119.578 4.95307 119.452 4.45987 119.201 4.15041C118.949 3.83127 118.553 3.6717 118.011 3.6717C117.46 3.6717 117.054 3.83127 116.793 4.15041C116.541 4.45987 116.416 4.95307 116.416 5.63003V6.70349C116.416 7.38046 116.541 7.87848 116.793 8.19761C117.054 8.50711 117.46 8.66182 118.011 8.66182ZM126.025 10.185C125.252 10.185 124.661 9.95288 124.256 9.48867C123.859 9.01483 123.661 8.32814 123.661 7.42882V3.71522H122.82V2.29362H125.634V7.05163C125.634 7.61257 125.735 8.02357 125.938 8.28463C126.151 8.53607 126.485 8.66182 126.939 8.66182C127.394 8.66182 127.727 8.53607 127.94 8.28463C128.162 8.02357 128.273 7.61257 128.273 7.05163V2.29362H130.232V8.61831H131.073V10.0399H129.768C129.371 10.0399 129.067 9.93355 128.854 9.72077C128.642 9.508 128.535 9.20335 128.535 8.8069V8.51674H128.085C127.95 9.0873 127.713 9.508 127.374 9.77876C127.036 10.0496 126.587 10.185 126.025 10.185ZM135.548 10.185C134.784 10.185 134.132 10.0302 133.59 9.72077C133.048 9.41128 132.632 8.95677 132.343 8.35717C132.053 7.75758 131.908 7.02746 131.908 6.16676C131.908 5.30606 132.053 4.57592 132.343 3.97633C132.632 3.37674 133.048 2.92222 133.59 2.61275C134.132 2.30328 134.784 2.14856 135.548 2.14856C136.525 2.14856 137.309 2.39033 137.899 2.87386C138.498 3.3574 138.87 4.05853 139.016 4.97726H137.028V4.78868C137.028 4.62427 136.975 4.45503 136.869 4.28096C136.772 4.10689 136.613 3.96183 136.39 3.84577C136.168 3.72973 135.887 3.6717 135.548 3.6717C135.007 3.6717 134.61 3.83127 134.359 4.15041C134.108 4.45987 133.982 4.94824 133.982 5.61552V6.71799C133.982 7.38524 134.108 7.87848 134.359 8.19761C134.61 8.50711 135.007 8.66182 135.548 8.66182C135.887 8.66182 136.168 8.60376 136.39 8.48778C136.613 8.36202 136.772 8.20731 136.869 8.02357C136.975 7.83982 137.028 7.65123 137.028 7.45778V7.24023H139.03C138.904 8.19761 138.541 8.92774 137.942 9.43061C137.342 9.93355 136.545 10.185 135.548 10.185ZM142.113 10.0399C141.716 10.0399 141.412 9.93355 141.199 9.72077C140.996 9.508 140.894 9.20335 140.894 8.8069V2.29362L141.561 0.741459H142.852V8.61831H144.376V10.0399H142.113ZM139.719 2.29362H144.376V3.71522H139.719V2.29362ZM148.687 10.185C147.653 10.185 146.86 9.97706 146.308 9.56121C145.767 9.13566 145.428 8.46837 145.293 7.55935H147.237V7.70444C147.237 7.89781 147.286 8.07193 147.382 8.22664C147.479 8.37172 147.634 8.48778 147.846 8.5748C148.069 8.66182 148.349 8.70533 148.687 8.70533C149.142 8.70533 149.485 8.63764 149.717 8.50226C149.95 8.36687 150.065 8.16858 150.065 7.90751C150.065 7.69474 149.993 7.53032 149.848 7.41427C149.713 7.29822 149.471 7.19672 149.123 7.10962L147.527 6.77602C146.773 6.60194 146.221 6.34567 145.873 6.00719C145.535 5.65904 145.365 5.19001 145.365 4.60009C145.365 3.80709 145.646 3.20267 146.207 2.78683C146.778 2.36131 147.594 2.14856 148.659 2.14856C149.684 2.14856 150.462 2.36131 150.994 2.78683C151.535 3.20267 151.874 3.86512 152.01 4.77417H150.08V4.6291C150.08 4.4357 150.032 4.26645 149.935 4.12139C149.838 3.96666 149.684 3.84577 149.471 3.75874C149.258 3.6717 148.988 3.62818 148.659 3.62818C148.224 3.62818 147.89 3.69588 147.658 3.83127C147.435 3.96666 147.324 4.16491 147.324 4.42602C147.324 4.63878 147.392 4.80318 147.527 4.91923C147.672 5.03528 147.909 5.13682 148.238 5.22386L149.833 5.5575C150.597 5.73158 151.154 5.99268 151.502 6.34083C151.859 6.67931 152.038 7.13865 152.038 7.71892C152.038 8.51189 151.749 9.12118 151.168 9.54666C150.597 9.97221 149.771 10.185 148.687 10.185Z" fill="black"/>
<path d="M4.04217 18.0778H16.9198C19.6528 18.0778 21.7619 18.7908 23.2472 20.2167C24.7622 21.6128 25.5198 23.618 25.5198 26.2322C25.5198 28.1928 25.089 29.6929 24.2275 30.7326C23.3661 31.7427 22.1035 32.3516 20.44 32.5596V33.7181C22.2224 33.9261 23.5591 34.5796 24.4503 35.6787C25.3712 36.7482 25.8317 38.3077 25.8317 40.3575C25.8317 43.0607 25.0593 45.155 23.5146 46.6403C21.9996 48.0959 19.8459 48.8237 17.0535 48.8237H4.04217V18.0778ZM16.697 45.259C18.1526 45.259 19.2369 44.8877 19.9498 44.145C20.6628 43.4023 21.0193 42.2735 21.0193 40.7585V39.3326C21.0193 37.7879 20.6628 36.6442 19.9498 35.9015C19.2369 35.1589 18.1526 34.7875 16.697 34.7875H8.72089V45.259H16.697ZM16.6079 31.4902C17.9744 31.4902 18.9992 31.1337 19.6825 30.4207C20.3954 29.6781 20.7519 28.5789 20.7519 27.1233V25.9202C20.7519 24.4943 20.4103 23.4249 19.727 22.712C19.0438 21.999 18.0041 21.6426 16.6079 21.6426H8.72089V31.4902H16.6079ZM31.1777 28.4601H28.1923V25.0291H35.0098V29.3513H36.2575C36.8219 27.7769 37.6091 26.6183 38.6191 25.8757C39.6292 25.133 40.9511 24.7617 42.5849 24.7617H45.8378V28.4601H40.758C39.0053 28.4601 37.728 28.9354 36.9259 29.886C36.1238 30.8366 35.7228 32.3516 35.7228 34.4311V48.8237H31.1777V28.4601ZM55.825 49.2693C53.9535 49.2693 52.3345 48.794 50.968 47.8434C49.6015 46.8631 48.5469 45.4521 47.8043 43.6103C47.0913 41.7388 46.7349 39.5108 46.7349 36.9264C46.7349 34.342 47.0913 32.1288 47.8043 30.2871C48.5469 28.4156 49.6015 27.0045 50.968 26.0539C52.3345 25.0736 53.9535 24.5835 55.825 24.5835C57.4885 24.5835 58.8847 24.9994 60.0135 25.8311C61.1424 26.6332 62.0187 27.8511 62.6425 29.485H63.8456V25.0291H70.6632V28.4601H67.6777V45.3927H70.6632V48.8237H66.8311C65.8508 48.8237 65.1081 48.5712 64.6031 48.0662C64.0981 47.5315 63.8456 46.774 63.8456 45.7937V44.3678H62.6425C62.0187 46.0016 61.1424 47.2344 60.0135 48.0662C58.8847 48.8683 57.4885 49.2693 55.825 49.2693ZM57.34 45.5709C59.3303 45.5709 60.7859 44.9916 61.7068 43.8331C62.6574 42.6745 63.1327 40.8179 63.1327 38.2632V35.5896C63.1327 33.0349 62.6574 31.1782 61.7068 30.0197C60.7859 28.8612 59.3303 28.2819 57.34 28.2819C55.3497 28.2819 53.8792 28.8612 52.9286 30.0197C52.0077 31.1782 51.5473 33.0349 51.5473 35.5896V38.2632C51.5473 40.8179 52.0077 42.6745 52.9286 43.8331C53.8792 44.9916 55.3497 45.5709 57.34 45.5709ZM73.5255 51.2745H87.1606C88.0518 51.2745 88.6756 51.1408 89.0321 50.8735C89.4183 50.6061 89.6114 50.1457 89.6114 49.4921C89.6114 48.8386 89.4183 48.3633 89.0321 48.0662C88.6756 47.7692 88.0518 47.6206 87.1606 47.6206H78.427C76.7931 47.6206 75.5603 47.3384 74.7286 46.774C73.9265 46.2096 73.5255 45.3778 73.5255 44.2787C73.5255 43.2687 73.8522 42.4815 74.5058 41.917C75.189 41.3526 76.1545 41.0259 77.4021 40.9367V39.8673C76.0653 39.3326 75.0553 38.486 74.3721 37.3274C73.6888 36.1689 73.3472 34.7281 73.3472 33.0052C73.3472 30.3316 74.1938 28.267 75.8871 26.8114C77.6101 25.3261 80.0014 24.5835 83.0611 24.5835C86.1209 24.5835 88.4974 25.3261 90.1906 26.8114C91.8839 28.267 92.7305 30.3316 92.7305 33.0052C92.7305 35.6193 91.8839 37.6393 90.1906 39.0652C88.5271 40.4614 86.1951 41.1595 83.1948 41.1595H79.7638C79.0211 41.1595 78.4864 41.2784 78.1596 41.516C77.8626 41.7239 77.714 42.0804 77.714 42.5854C77.714 43.0607 77.8626 43.4172 78.1596 43.6549C78.4864 43.8628 79.0211 43.9668 79.7638 43.9668H88.0963C90.057 43.9668 91.5571 44.4124 92.5968 45.3035C93.6366 46.1947 94.1564 47.487 94.1564 49.1802C94.1564 50.9923 93.5771 52.3588 92.4186 53.2797C91.2601 54.2303 89.5817 54.7056 87.3834 54.7056H73.5255V51.2745ZM83.0611 37.8621C84.8138 37.8621 86.1209 37.5057 86.9824 36.7927C87.8438 36.0501 88.2746 34.9064 88.2746 33.3616V32.5596C88.2746 31.0446 87.8438 29.9306 86.9824 29.2176C86.1209 28.475 84.8138 28.1036 83.0611 28.1036C81.3085 28.1036 80.0014 28.475 79.1399 29.2176C78.2784 29.9306 77.8477 31.0446 77.8477 32.5596V33.3616C77.8477 34.9064 78.2784 36.0501 79.1399 36.7927C80.0014 37.5057 81.3085 37.8621 83.0611 37.8621ZM86.7596 26.143C86.7596 24.5983 87.0715 23.4546 87.6953 22.712C88.3488 21.9693 89.344 21.598 90.6808 21.598H93.9782V25.0291H89.344C88.7796 25.0291 88.3488 25.1924 88.0518 25.5192C87.7844 25.8163 87.6508 26.3213 87.6508 27.0342L86.7596 26.143ZM108.113 18.0778H128.387V27.0342H124.466V21.6426H112.791V31.4902H123.931V34.7875H112.791V48.8237H108.113V18.0778ZM133.116 28.4601H130.13V25.0291H136.948V29.3513H138.196C138.76 27.7769 139.547 26.6183 140.557 25.8757C141.567 25.133 142.889 24.7617 144.523 24.7617H147.776V28.4601H142.696C140.943 28.4601 139.666 28.9354 138.864 29.886C138.062 30.8366 137.661 32.3516 137.661 34.4311V48.8237H133.116V28.4601ZM159.504 49.2693C157.187 49.2693 155.197 48.794 153.533 47.8434C151.899 46.8928 150.652 45.4966 149.79 43.6549C148.929 41.8131 148.498 39.5702 148.498 36.9264C148.498 34.2825 148.929 32.0397 149.79 30.1979C150.652 28.3562 151.899 26.96 153.533 26.0094C155.197 25.0588 157.187 24.5835 159.504 24.5835C161.791 24.5835 163.752 25.0588 165.386 26.0094C167.049 26.96 168.312 28.3562 169.173 30.1979C170.035 32.0397 170.466 34.2825 170.466 36.9264C170.466 39.5702 170.035 41.8131 169.173 43.6549C168.312 45.4966 167.049 46.8928 165.386 47.8434C163.752 48.794 161.791 49.2693 159.504 49.2693ZM159.504 45.5709C161.613 45.5709 163.158 44.9916 164.138 43.8331C165.148 42.6448 165.653 40.7733 165.653 38.2186V35.6342C165.653 33.0794 165.148 31.2228 164.138 30.0643C163.158 28.876 161.613 28.2819 159.504 28.2819C157.365 28.2819 155.791 28.876 154.781 30.0643C153.8 31.2228 153.31 33.0794 153.31 35.6342V38.2186C153.31 40.7733 153.8 42.6448 154.781 43.8331C155.791 44.9916 157.365 45.5709 159.504 45.5709ZM173.897 51.2745H187.532C188.423 51.2745 189.047 51.1408 189.404 50.8735C189.79 50.6061 189.983 50.1457 189.983 49.4921C189.983 48.8386 189.79 48.3633 189.404 48.0662C189.047 47.7692 188.423 47.6206 187.532 47.6206H178.799C177.165 47.6206 175.932 47.3384 175.1 46.774C174.298 46.2096 173.897 45.3778 173.897 44.2787C173.897 43.2687 174.224 42.4815 174.877 41.917C175.561 41.3526 176.526 41.0259 177.774 40.9367V39.8673C176.437 39.3326 175.427 38.486 174.744 37.3274C174.06 36.1689 173.719 34.7281 173.719 33.0052C173.719 30.3316 174.565 28.267 176.259 26.8114C177.982 25.3261 180.373 24.5835 183.433 24.5835C186.492 24.5835 188.869 25.3261 190.562 26.8114C192.255 28.267 193.102 30.3316 193.102 33.0052C193.102 35.6193 192.255 37.6393 190.562 39.0652C188.899 40.4614 186.567 41.1595 183.566 41.1595H180.135C179.393 41.1595 178.858 41.2784 178.531 41.516C178.234 41.7239 178.086 42.0804 178.086 42.5854C178.086 43.0607 178.234 43.4172 178.531 43.6549C178.858 43.8628 179.393 43.9668 180.135 43.9668H188.468C190.429 43.9668 191.929 44.4124 192.968 45.3035C194.008 46.1947 194.528 47.487 194.528 49.1802C194.528 50.9923 193.949 52.3588 192.79 53.2797C191.632 54.2303 189.953 54.7056 187.755 54.7056H173.897V51.2745ZM183.433 37.8621C185.185 37.8621 186.492 37.5057 187.354 36.7927C188.215 36.0501 188.646 34.9064 188.646 33.3616V32.5596C188.646 31.0446 188.215 29.9306 187.354 29.2176C186.492 28.475 185.185 28.1036 183.433 28.1036C181.68 28.1036 180.373 28.475 179.512 29.2176C178.65 29.9306 178.219 31.0446 178.219 32.5596V33.3616C178.219 34.9064 178.65 36.0501 179.512 36.7927C180.373 37.5057 181.68 37.8621 183.433 37.8621ZM187.131 26.143C187.131 24.5983 187.443 23.4546 188.067 22.712C188.72 21.9693 189.716 21.598 191.052 21.598H194.35V25.0291H189.716C189.151 25.0291 188.72 25.1924 188.423 25.5192C188.156 25.8163 188.022 26.3213 188.022 27.0342L187.131 26.143Z" fill="black"/>
</svg>
